<svg xmlns="http://www.w3.org/2000/svg" width="78.506" height="90.002" viewBox="0 0 78.506 90.002">
  <g id="noun_Palm_Tree_1024248" data-name="noun_Palm Tree_1024248" transform="translate(-10.75 -4.998)">
    <path id="Path_3" data-name="Path 3" d="M48.224,26.615c-.171-.289-.344-.575-.517-.862a14.526,14.526,0,0,1,.258,1.572c.127,1.039.32,2.073.407,3.115,0,.028-.038.03-.046.006-.338-.985-.652-2.036-.889-3.05-.074-.316-.163-.637-.244-.96a56.474,56.474,0,0,0,.6,11.324q.075-.406.151-.813c.067-.362.557-.29.662,0a27.491,27.491,0,0,1,1.246,4.767c.17-1.469.4-2.932.648-4.367.5-2.948,1.1-5.88,1.841-8.779a82.148,82.148,0,0,1,5.875-16.541.143.143,0,0,1,.261.11c-1.992,5.645-3.988,11.247-5.422,17.071-.623,2.533-1.147,5.083-1.609,7.649.161-.21.551-.231.611.09q.148.8.3,1.608A22.632,22.632,0,0,1,56.7,29.366c.186-.237.585-.035.576.239q-.025.8-.052,1.6c.309-.623.64-1.233.983-1.834-.107.08-.28-.063-.2-.185a24,24,0,0,0,3.092-6.234,9.016,9.016,0,0,1-.683.745,9.413,9.413,0,0,1-2.189,1.548.022.022,0,0,1-.022-.037,9.3,9.3,0,0,0,1.929-1.793c.4-.48.711-1.164,1.164-1.61-.677.291-1.356.581-2.03.88-.269.119-.6-.136-.428-.428a19.3,19.3,0,0,0,2.479-6.5,12.449,12.449,0,0,1-.924,1.7,24.241,24.241,0,0,1-1.483,2.253c-.008.011-.028,0-.023-.01A23.523,23.523,0,0,1,60,17.22a16.2,16.2,0,0,1,.807-1.508q-.8.685-1.592,1.373c-.215.186-.67.012-.535-.311A35.906,35.906,0,0,0,61.406,5a27.958,27.958,0,0,0-6.52,9.189c-.146.332-.63.14-.64-.174s-.023-.649-.034-.974c-.045.389-.115.778-.149,1.143a20.449,20.449,0,0,1-.276,2.166c-.006.03-.047.02-.05-.007-.081-.956-.014-1.92-.015-2.878,0-.155,0-.311,0-.466a27.782,27.782,0,0,0-1.6,6.7c-.041.378-.588.507-.7.094q-.213-.806-.43-1.609c-.021.584-.08,1.172-.055,1.752.044,1.027.189,2.047.264,3.072,0,.048-.068.054-.082.011a17.308,17.308,0,0,1-.541-3.083,14.357,14.357,0,0,1-.171-2.127,58.434,58.434,0,0,0-1.633,8.659A.3.3,0,0,1,48.224,26.615Z"/>
    <path id="Path_4" data-name="Path 4" d="M49.593,17.807c0,.024,0,.049,0,.073,0-.012.007-.023.01-.035Z"/>
    <path id="Path_5" data-name="Path 5" d="M40.79,17.083Q40,16.395,39.2,15.71a15.968,15.968,0,0,1,.807,1.508,23.523,23.523,0,0,1,1.1,2.479c.005.014-.015.02-.023.01A24.041,24.041,0,0,1,39.6,17.454a12.449,12.449,0,0,1-.924-1.7,19.326,19.326,0,0,0,2.479,6.5c.176.293-.16.547-.428.428-.675-.3-1.353-.588-2.03-.88.454.446.764,1.13,1.165,1.61a9.245,9.245,0,0,0,1.929,1.793.022.022,0,0,1-.022.037,9.442,9.442,0,0,1-2.189-1.548,8.691,8.691,0,0,1-.683-.745,24,24,0,0,0,3.092,6.234c.083.122-.09.265-.2.185.343.6.674,1.211.983,1.834q-.025-.8-.052-1.6c-.009-.273.39-.475.576-.239a22.657,22.657,0,0,1,3.9,7.5,44.571,44.571,0,0,1-.67-9.251c-1.391-5.255-3.2-10.35-5.006-15.478a.143.143,0,0,1,.26-.11A75.411,75.411,0,0,1,46.692,25c.026-.3.046-.6.078-.894a.288.288,0,0,1,.533-.144c.307.517.623,1.028.938,1.541A36.429,36.429,0,0,1,49.059,20c0-.022,0-.044,0-.067.025-.58-.034-1.168-.055-1.752q-.216.8-.43,1.609c-.109.413-.655.283-.7-.094a27.793,27.793,0,0,0-1.6-6.7c0,.155,0,.31,0,.466,0,.959.066,1.922-.015,2.878,0,.027-.043.036-.05.007a20.192,20.192,0,0,1-.276-2.166c-.035-.365-.1-.754-.149-1.143-.012.325-.024.649-.034.974s-.494.506-.64.174A27.958,27.958,0,0,0,38.593,5a35.8,35.8,0,0,0,2.731,11.771C41.459,17.095,41,17.269,40.79,17.083Z"/>
    <path id="Path_6" data-name="Path 6" d="M13.417,21.2a.042.042,0,0,1,.022.08c-.616.241-1.233.473-1.861.683-.119.04-.24.083-.361.127.432-.029.865-.06,1.3-.087,1.461-.15,2.927-.2,4.4-.272a.313.313,0,0,1,.157.578c-.638.41-1.284.808-1.927,1.21a12.173,12.173,0,0,1,4.722-.727c.081,0,.1.125.02.145-1.058.251-2.126.416-3.173.718a14.684,14.684,0,0,0-1.442.521,23.518,23.518,0,0,1,3.373-.1.318.318,0,0,1,.223.538c-.52.466-1.043.927-1.566,1.389.246-.088.493-.17.728-.258.952-.355,1.891-.762,2.872-1.032a.067.067,0,0,1,.051.122c-.872.525-1.813.929-2.729,1.372-.27.131-.541.278-.816.414a14.619,14.619,0,0,1,4.917.284.338.338,0,0,1,.08.61L21.767,28c1-.332,2.054-.57,3.027-.851.089-.026.151.111.064.152a31.818,31.818,0,0,1-3.949,1.755l4.587.319c.305.021.493.468.169.625q-.892.432-1.787.86c1.189-.446,2.423-.811,3.626-1.159.085-.025.144.106.061.145-1.1.527-2.242,1.069-3.4,1.522.681.018,1.365.049,2.032.122-.14-.2,0-.547.288-.453.693.228,1.37.487,2.036.769.51-.117,1.023-.181,1.545-.274a.074.074,0,0,1,.039.143c-.341.124-.67.26-1,.384a26.436,26.436,0,0,1,4.226,2.408q-.6-.864-1.19-1.727c-.2-.285.216-.542.449-.346q2.381,2.006,4.762,4.01-.246-.577-.493-1.154a.291.291,0,0,1,.455-.351,18.127,18.127,0,0,1,4.26,5.659l-.2-1.367c-.035-.237.267-.512.462-.269A19.889,19.889,0,0,1,44.99,44.6q-.041-.609-.08-1.219a.226.226,0,0,1,.026-.118,47.036,47.036,0,0,0-3.575-6.53,45.25,45.25,0,0,0-10.2-10.965,35.543,35.543,0,0,0-6.812-4.208,13.894,13.894,0,0,0-9.1-.845.145.145,0,0,1-.111-.264c4.953-2.832,11.253.978,15.27,3.809A45.744,45.744,0,0,1,41.442,35.458a45.522,45.522,0,0,1,6.012,12.168.241.241,0,0,1,.323.16q.632,2.259,1.049,4.562-.125-3.9-.209-7.8c-.006-.273.415-.412.537-.146q.194.423.385.846a27.821,27.821,0,0,0-.886-5.84c-.017.215-.04.43-.057.641-.063.8-.152,1.6-.271,2.386-.016.1-.167.07-.174-.023-.054-.786-.065-1.575-.078-2.363,0-.019,0-.039,0-.059-.033.179-.067.359-.1.538-.078.415-.624.255-.67-.091a21.763,21.763,0,0,0-3.128-8.656A14.53,14.53,0,0,1,44.43,35.2c0,.028-.045.035-.05.007-.139-.8-.344-1.575-.531-2.36-.109-.454-.271-.909-.4-1.369q.018.66.037,1.319c.009.31-.483.478-.616.167a32.484,32.484,0,0,0-5.018-8.145,36.61,36.61,0,0,1,.972,3.648c.008.029-.036.049-.049.021-.433-.95-1.056-2.014-1.47-3.09a.325.325,0,0,1-.6.144,26.5,26.5,0,0,0-6.851-6.686l.056.075a9.076,9.076,0,0,1,1.234,2.514c.022.063-.082.108-.109.046a8.675,8.675,0,0,0-1.5-2.271,10.618,10.618,0,0,0-.932-.841q.309.583.619,1.168c.143.27-.17.673-.457.457a16.073,16.073,0,0,0-4.184-2.268A10.427,10.427,0,0,1,26.84,19.62c.014.016,0,.044-.024.031a16.223,16.223,0,0,0-2.341-1.319c-.231-.1-.478-.193-.73-.279A3.663,3.663,0,0,1,24.7,19.31c.044.1-.058.261-.175.175-.194-.142-.38-.294-.563-.448a18.633,18.633,0,0,0-2.8-1.176,5.714,5.714,0,0,0-1.422-.165,14.37,14.37,0,0,0-9,3.951c.237-.048.476-.086.707-.13C12.107,21.39,12.76,21.29,13.417,21.2Z"/>
    <path id="Path_7" data-name="Path 7" d="M53.423,68.784a7.465,7.465,0,0,1-.133-1.041,4.384,4.384,0,0,0-.356-.82,14.4,14.4,0,0,0-.838-1.177c-.033.264-.052.53-.085.8a3.251,3.251,0,0,1,.16.57.222.222,0,0,1,.167.066A6.833,6.833,0,0,1,53.423,68.784Z"/>
    <path id="Path_8" data-name="Path 8" d="M56.386,92.334c.342-.1.685-.184,1.029-.271,2.175-1.212,2.525-3.494,2.462-5.882-2.125.835-3.844,1.817-4.677,4a4.464,4.464,0,0,1,.175,1.3,4.52,4.52,0,0,1-.2,1.241A10.125,10.125,0,0,1,56.386,92.334Z"/>
    <path id="Path_9" data-name="Path 9" d="M60.23,85.318a3.978,3.978,0,0,1,.215-.625,7.22,7.22,0,0,0-.515-4.406c-.411.572-.824,1.145-1.253,1.7a5.4,5.4,0,0,0-.809,1.568,4.236,4.236,0,0,1-.072,2.772,21.036,21.036,0,0,1,2.322-1A.276.276,0,0,1,60.23,85.318Z"/>
    <path id="Path_10" data-name="Path 10" d="M56.95,77.948a2.831,2.831,0,0,0-.71,1.839c.038.355.088.438.094.585,0,.006.011.009.015.015a17.023,17.023,0,0,1,1.158,2.149c.011-.019.02-.039.031-.058a24.954,24.954,0,0,1,1.618-2.263c.333-1.2-.508-2.643-1.116-3.8C57.726,76.959,57.326,77.42,56.95,77.948Z"/>
    <path id="Path_11" data-name="Path 11" d="M53.623,87.352a11.776,11.776,0,0,1,1.186,1.825,4.7,4.7,0,0,1,1.784-2.12.1.1,0,0,1,.02-.015c.183-.129.373-.251.568-.367.514-.781.2-2.618-.007-3.2a12.67,12.67,0,0,0-1.166-2.314c-1.272,1.549-3.45,4.225-2.4,6.064A.175.175,0,0,1,53.623,87.352Z"/>
    <path id="Path_12" data-name="Path 12" d="M53.473,83.433a18.445,18.445,0,0,1,1.609-2.269,5.231,5.231,0,0,0-.839-3.647,6.523,6.523,0,0,1-.666.981,2.939,2.939,0,0,0-.877,2.3,3.5,3.5,0,0,1,.461.87A5.273,5.273,0,0,1,53.473,83.433Z"/>
    <path id="Path_13" data-name="Path 13" d="M42.5,87q.375,1.131.75,2.261a4.9,4.9,0,0,0,1.443,2.656,6.045,6.045,0,0,1,.671.053,4.355,4.355,0,0,1,1.708.569c-.014-.075-.031-.149-.039-.225a4.959,4.959,0,0,1,.141-1.818C46.7,88.128,44.369,87.933,42.5,87Z"/>
    <path id="Path_14" data-name="Path 14" d="M40.562,85.414a8.077,8.077,0,0,1,.894.777.376.376,0,0,1,.558-.356A15.9,15.9,0,0,0,44.4,86.9a3.475,3.475,0,0,1-.525-1.346A6.187,6.187,0,0,0,41.81,82.6c-.028-.019-.057-.034-.086-.052a.9.9,0,0,1-.677-.414c-.233-.138-.464-.275-.682-.427a5,5,0,0,1-.009.931,5.992,5.992,0,0,0-.062,2.024C40.367,84.917,40.47,85.163,40.562,85.414Z"/>
    <path id="Path_15" data-name="Path 15" d="M43.414,75.671a2.779,2.779,0,0,0,.292,2.108c.1.246.216.488.345.735.15.139.3.281.432.427.01-.087.024-.173.042-.259a18.585,18.585,0,0,0,.828-2.758.328.328,0,0,1,.21-.275c-.089-.186-.177-.373-.271-.558A3.915,3.915,0,0,1,43.9,73.6a8.75,8.75,0,0,0-.5,1.847C43.409,75.524,43.409,75.6,43.414,75.671Z"/>
    <path id="Path_16" data-name="Path 16" d="M46.4,66.68a2.52,2.52,0,0,0-.632,1.043c.09.23.175.469.245.718a5,5,0,0,1,.8-1.358.277.277,0,0,1,.434.056c.024.054.052.114.081.174a6.7,6.7,0,0,0,.09-.692,5.428,5.428,0,0,0-.082-1.218C47.029,65.83,46.72,66.259,46.4,66.68Z"/>
    <path id="Path_17" data-name="Path 17" d="M52.9,73.169c-.583.576-1.336,1.5-.922,2.2a.138.138,0,0,1,.006.125,5.876,5.876,0,0,1,.889,2.789A9.837,9.837,0,0,0,53.9,76.73a.337.337,0,0,1,.061-.1,3.074,3.074,0,0,0-.444-1.942C53.307,74.182,53.108,73.675,52.9,73.169Z"/>
    <path id="Path_18" data-name="Path 18" d="M51.866,70.3a5.235,5.235,0,0,1,.987,2.14c.012-.008.025-.008.038-.015a3.908,3.908,0,0,1,.144-1.359v0a4.515,4.515,0,0,0,.007-1.691,4.785,4.785,0,0,0-.8-1.517,5.766,5.766,0,0,0-.343,1.543C51.883,69.7,51.887,70,51.866,70.3Z"/>
    <path id="Path_19" data-name="Path 19" d="M51.224,70.548a4.68,4.68,0,0,0-.669,1.019,2.613,2.613,0,0,0-.147,1.607c.313.415.642.857.958,1.323a5.083,5.083,0,0,1,.851-1.389,3.687,3.687,0,0,0-.839-2.518A.17.17,0,0,1,51.224,70.548Z"/>
    <path id="Path_20" data-name="Path 20" d="M48.81,78.923c.326-.508.645-.971.862-1.344a.332.332,0,0,1,.6.079A5.717,5.717,0,0,0,51.925,79.9c1.087-2.515-.893-4.89-2.363-6.9l-.824,1.6c-.311.6-1.136,1.776-1.005,2.565a4.117,4.117,0,0,1,.859,1.122A2.556,2.556,0,0,1,48.81,78.923Z"/>
    <path id="Path_21" data-name="Path 21" d="M46.287,71.007a3.449,3.449,0,0,1,.429,1.138c.011,0,.023,0,.035,0a4.172,4.172,0,0,1,.873-1.9,5.347,5.347,0,0,0-.691-2.407A4.528,4.528,0,0,0,46.287,71.007Z"/>
    <path id="Path_22" data-name="Path 22" d="M47.156,76.682a2.765,2.765,0,0,1,.276-.761q.222-.434.443-.866a8.05,8.05,0,0,0-.79-1.364,3.941,3.941,0,0,1-.368-.614c-.016.032-.03.065-.045.1a2.089,2.089,0,0,1-.2.479,2.489,2.489,0,0,0,.455,2.817.066.066,0,0,1,.018.059C47.015,76.579,47.087,76.629,47.156,76.682Z"/>
    <path id="Path_23" data-name="Path 23" d="M45.322,78a3.987,3.987,0,0,0-.113,1.033c.04.531.226,1.023.31,1.536l.039-.061a.3.3,0,0,1,.468-.06c.349.368.918.914,1.511,1.553a4.807,4.807,0,0,1,.665-2.058,2.562,2.562,0,0,0-.573-2.028,11.017,11.017,0,0,0-1.777-1.494A11.137,11.137,0,0,1,45.322,78Z"/>
    <path id="Path_24" data-name="Path 24" d="M48.207,74.406q.439-.858.877-1.716a4.34,4.34,0,0,0-.792-2.327,4.784,4.784,0,0,0-1.079,2.375A12.281,12.281,0,0,1,48.207,74.406Z"/>
    <path id="Path_25" data-name="Path 25" d="M44.461,72.013a9.429,9.429,0,0,0-.2.928,6.539,6.539,0,0,0,.617.87c.184.19.348.394.486.564l.054.069c.1.109.191.217.286.328a5.98,5.98,0,0,1,.51-1.806A3.475,3.475,0,0,0,45.176,70.5,7.038,7.038,0,0,0,44.461,72.013Z"/>
    <path id="Path_26" data-name="Path 26" d="M41.684,77.494c-.266,1.332-.765,3.493.171,4.452a4.866,4.866,0,0,1,1.278,1,7,7,0,0,1,.789,1.155,8.2,8.2,0,0,1,1.091-2.71C45,79.862,42.885,78.3,41.684,77.494Z"/>
    <path id="Path_27" data-name="Path 27" d="M48.838,87.205c1.116-2.09-1.574-4.513-2.975-6.043a7.534,7.534,0,0,0-1.321,3.369,3.515,3.515,0,0,0,1.448,3.052.179.179,0,0,1,.057.1,3.311,3.311,0,0,1,1.584,1.594A20.738,20.738,0,0,1,48.838,87.205Z"/>
    <path id="Path_28" data-name="Path 28" d="M50.481,83.291a.288.288,0,0,1,.563-.076,8.473,8.473,0,0,0,1.522,2.768,3.387,3.387,0,0,1,.161-.917,5.125,5.125,0,0,0-.995-4.5A10.787,10.787,0,0,1,49.9,78.461c-.854,1.356-1.87,2.789-1.624,4.392a6.607,6.607,0,0,1,1.509,2.712A6.305,6.305,0,0,0,50.481,83.291Z"/>
    <path id="Path_29" data-name="Path 29" d="M54.283,74.858a4.362,4.362,0,0,1,.826-1.617,3.144,3.144,0,0,0-1.183-2.752,7.253,7.253,0,0,0-.409,2.6C53.779,73.668,54.063,74.258,54.283,74.858Z"/>
    <path id="Path_30" data-name="Path 30" d="M50.538,66.713a2.522,2.522,0,0,0,.028.463c.149.305.454.489.66.757a3.115,3.115,0,0,1,.289.445,6.227,6.227,0,0,1,.206-.623,5.053,5.053,0,0,0-.889-2.171A3.454,3.454,0,0,0,50.538,66.713Z"/>
    <path id="Path_31" data-name="Path 31" d="M51.184,69.765a1.975,1.975,0,0,0-.33-1.395,3.257,3.257,0,0,0-.281-.313c-.005,0-.01,0-.015,0a1.286,1.286,0,0,1-.359-.4h0c-.3.4-.6.8-.865,1.218a2.269,2.269,0,0,0-.436,1.062c-.005.108,0,.205-.006.3a3.846,3.846,0,0,1,.615,1.951.337.337,0,0,1,.2.089,5.106,5.106,0,0,1,1.384-2.454A.277.277,0,0,1,51.184,69.765Z"/>
    <path id="Path_32" data-name="Path 32" d="M48.9,65.6c-.172.3-.342.6-.517.9-.248.422-.749.994-.666,1.5a.154.154,0,0,1-.02.1,4.6,4.6,0,0,1,.441,1.506.284.284,0,0,1,.243-.014,4.99,4.99,0,0,1,.873-1.662,2.339,2.339,0,0,0,.075-1.123A5.832,5.832,0,0,0,48.9,65.6Z"/>
    <path id="Path_33" data-name="Path 33" d="M18.792,47.753a10.026,10.026,0,0,1,2.595-3.581c.188-.166.559-.072.537.222q-.045.582-.089,1.163a11.608,11.608,0,0,1,2.74-3.311.04.04,0,0,1,.056.056,16.5,16.5,0,0,0-1.562,2.093,11.293,11.293,0,0,0-.658,1.257A6.656,6.656,0,0,1,26.049,43.8a.312.312,0,0,1,.378.378q-.171.708-.344,1.415c.26-.391.543-.769.8-1.145.434-.63.873-1.251,1.361-1.84.024-.029.062.008.048.037-.359.79-.784,1.54-1.211,2.294-.213.375-.42.764-.648,1.138q1.391-1.208,2.781-2.415c.217-.188.653-.014.53.309q-.3.8-.606,1.6c.264-.254.538-.5.79-.755.53-.539,1.074-1.068,1.557-1.651.045-.054.132.016.1.074a20.512,20.512,0,0,1-1.607,2.4,11.08,11.08,0,0,1,4.949-.655.338.338,0,0,1,.237.571c-.41.391-.823.78-1.235,1.169.949-.361,1.957-.6,2.9-.949.075-.028.127.1.054.129-1.011.462-1.988,1.075-3.026,1.5,1.63.122,3.261.238,4.891.366.307.024.528.5.177.652l-2.073.883c.2,0,.409.008.614.006.842-.008,1.682.112,2.524.1.087,0,.084.126,0,.133-.739.064-1.472.214-2.208.306-.1.012-.2.026-.3.04l4.829,1.686a.353.353,0,0,1-.093.69l-2.272.292.082.054a9.95,9.95,0,0,1,1.368.332c.743.176,1.495.323,2.248.448.09.015.059.142-.02.149a10.418,10.418,0,0,1-2.24-.04c1.24.812,2.478,1.627,3.7,2.461a.33.33,0,0,1-.165.611l-.543.012c.043.02.085.04.126.057a11.958,11.958,0,0,1,1.348.7c.085.049.028.2-.068.162-.456-.173-.922-.325-1.385-.48-.1-.034-.217-.062-.336-.09a11.788,11.788,0,0,1,3.761,8.338l.028-.094a43.068,43.068,0,0,0-.429-5.634,33.434,33.434,0,0,0-2.339-7.928,28.089,28.089,0,0,0-10.034-12.49,13.281,13.281,0,0,0-15.069.1c-4.9,3.289-6.9,9.036-7.651,14.623-.02.151-.247.163-.245,0,.054-5.559,2.391-11.47,6.9-14.9A13.972,13.972,0,0,1,34.26,37.611c5.124,2.641,8.891,7.736,11.3,12.841a31.289,31.289,0,0,1,3.185,14.409.27.27,0,0,1,.187-.078,53.794,53.794,0,0,0-.82-13.279A24.113,24.113,0,0,1,48,53.966c0,.015-.025.021-.028,0-.144-.631-.285-1.332-.388-2.048a.209.209,0,0,1-.349-.153,17.02,17.02,0,0,0-.823-4.913,8.41,8.41,0,0,1-.214,3.154.018.018,0,0,1-.035,0,20.848,20.848,0,0,1-.245-2.45c-.089-.887-.336-1.779-.389-2.673.033.562.065,1.124.09,1.687a.242.242,0,0,1-.474.064,18.336,18.336,0,0,0-2.371-5.454c.139.4.253.818.383,1.219a22.041,22.041,0,0,1,.854,3.147c.005.032-.039.057-.056.024a21.884,21.884,0,0,1-1.1-2.665c-.225-.608-.491-1.24-.662-1.882q.113.772.224,1.545a.273.273,0,0,1-.525.145,17.573,17.573,0,0,0-3.416-5.809c.58,1.366,1.1,2.756,1.734,4.1a.042.042,0,0,1-.072.042A22.475,22.475,0,0,1,38.27,37.6a.278.278,0,0,1-.389,0l-2.309-1.947a9.65,9.65,0,0,1,1.35,2.671.035.035,0,0,1-.063.026,14.124,14.124,0,0,0-1.705-2.416c-.133-.154-.278-.3-.427-.443l.052.075c.2.288-.214.532-.448.345a25.356,25.356,0,0,0-4.88-3.066l.357.3a13.781,13.781,0,0,1,2.9,3.023c.028.044-.032.082-.068.053-.969-.791-1.835-1.692-2.853-2.426-.623-.45-1.414-.843-2.067-1.332q.585.714,1.169,1.427c.162.2.018.6-.281.482A19.044,19.044,0,0,0,23.78,33.2c.2.074.388.148.569.215A8.777,8.777,0,0,1,27.125,35c.073.065-.02.158-.1.125-1.064-.463-2.078-.991-3.179-1.367-.674-.23-1.448-.29-2.122-.535l1.04.548a.29.29,0,0,1-.069.527l-3.061.493a13.652,13.652,0,0,1,3.3.785c.036.014.034.072-.01.071-1.031-.026-2.062-.172-3.093-.228-.617-.034-1.262.005-1.9-.015a.316.316,0,0,1-.084.4c-1.1.8-2.2,1.621-3.292,2.439,1.234-.4,2.589-.613,3.765-.892.023-.005.04.03.017.04-1.01.431-2.1.989-3.206,1.4a.309.309,0,0,1,.084.487,22.737,22.737,0,0,0-3.418,3.752c.148-.132.291-.259.417-.374a15.335,15.335,0,0,1,2.632-1.839c.072-.042.129.063.064.109A17.108,17.108,0,0,0,12.562,43c-.336.345-.654.706-.973,1.067-.093.1-.178.215-.261.325a2.293,2.293,0,0,0,.846-.763c.229-.332.774-.019.544.318a11.427,11.427,0,0,0-1.769,4c.069-.129.137-.255.2-.374a15.819,15.819,0,0,1,1.606-2.359c.041-.052.125.015.091.07a19.473,19.473,0,0,0-1.2,2.215c-.172.37-.3.79-.46,1.195l.439-.641a.324.324,0,0,1,.59.249,17.207,17.207,0,0,0-.461,2.727c-.006.067-.013.133-.019.2a18.093,18.093,0,0,0,.272,4.769,26.272,26.272,0,0,1,2.09-6.661.333.333,0,0,1,.572,0l.7,1.254a13.266,13.266,0,0,1,.39-4.812.073.073,0,0,1,.142.019c-.008.985-.036,1.968-.007,2.954.019.665.12,1.351.175,2.031.4-1.577.794-3.154,1.181-4.734a.324.324,0,0,1,.62,0c.127.453.252.907.378,1.361.061-.368.147-.734.22-1.091a19.282,19.282,0,0,1,1-3.21.058.058,0,0,1,.111.031c-.2.964-.359,1.935-.536,2.9C18.939,46.588,18.9,47.181,18.792,47.753Z"/>
    <path id="Path_34" data-name="Path 34" d="M36.756,61.413a9.048,9.048,0,0,1,3.783-.222.324.324,0,0,1,.142.537L39.1,63.293c.348-.141.731-.224,1.084-.329.68-.2,1.368-.31,2.052-.481a.06.06,0,0,1,.032.115c-.581.224-1.128.5-1.718.7-.361.127-.743.294-1.13.4q1.618.153,3.238.308a.3.3,0,0,1,.15.556l-.865.466.2,0a5.535,5.535,0,0,1,2.126.341.038.038,0,0,1-.01.074c-.7.077-1.412.016-2.116.04-.073,0-.146.008-.22.014a6.6,6.6,0,0,1,3.216,1.707l.032-.031a.274.274,0,0,1,.333-.025,1.371,1.371,0,0,1,.092-.147c.2-.279.413-.552.619-.828-.143-.509-.3-1.015-.489-1.516a18.188,18.188,0,0,0-3-5.042,13.028,13.028,0,0,0-9.889-5.055c-3.591,0-6.649,2.365-8.481,5.295-2.038,3.261-2.348,7.276-2.132,11.02.009.163-.265.2-.287.039a18.049,18.049,0,0,1,1.941-11.734,11.078,11.078,0,0,1,8.55-5.49c4.146-.346,8.008,2.034,10.677,5.005A18.793,18.793,0,0,1,46.9,65.243c.116-.154.23-.311.347-.464a11.773,11.773,0,0,0-4.482-8.208.3.3,0,0,1,.148-.547l.975-.054c-1.712-1.1-3.409-2.224-5.111-3.338a.353.353,0,0,1,.177-.653q.872-.114,1.742-.224L37.453,50.62a7.335,7.335,0,0,1,.831.795.02.02,0,0,1-.024.031,9.145,9.145,0,0,1-1.269-.845c-.052-.039-.111-.077-.168-.116.323.443.647.884.964,1.33.2.278-.212.526-.439.339a14.159,14.159,0,0,0-5.872-2.893c.137.1.269.208.392.306A5.121,5.121,0,0,1,33.3,51.5c.01.022-.019.051-.037.028a8.853,8.853,0,0,0-1.43-1.407c-.339-.272-.8-.474-1.172-.74.353.415.7.831,1.063,1.241a.291.291,0,0,1-.281.482,15.028,15.028,0,0,0-6.025-.341,8.767,8.767,0,0,1,3.285,1.252c.058.035.019.139-.047.112a12.23,12.23,0,0,0-2.063-.642,10.755,10.755,0,0,0-1.3-.145l.738.29a.327.327,0,0,1,0,.626A15.041,15.041,0,0,0,20.87,55.2a7.714,7.714,0,0,1,3.32-.4.044.044,0,0,1,0,.087,10.054,10.054,0,0,0-2.209.49,10.54,10.54,0,0,0-1.281.57l1.207-.3a.309.309,0,0,1,.3.513A11.27,11.27,0,0,0,19,61.547c.152-.169.311-.321.42-.44a8.176,8.176,0,0,1,1.626-1.272c.043-.028.094.038.055.071a9.641,9.641,0,0,0-1.289,1.352c-.1.125-.191.257-.287.384l.114-.11a.336.336,0,0,1,.557.324,34.416,34.416,0,0,0-.271,6.175c.037-.109.077-.219.114-.329a11.071,11.071,0,0,1,.712-1.6.085.085,0,0,1,.155.065c-.145.476-.281.956-.41,1.436-.026.1-.049.2-.072.3a.315.315,0,0,1,.184.2,35.718,35.718,0,0,0,2.131,5.124l.1.2a11.561,11.561,0,0,1,.222-3.17q.069-.72.169-1.438c.03-.216.333-.21.43-.056.059.1.126.186.191.278a7.467,7.467,0,0,1-.482-2.078c-.011-.085.109-.125.132-.036a8.036,8.036,0,0,0,.569,1.442,8.528,8.528,0,0,1,.1-3.344.316.316,0,0,1,.573-.075l.131.22c-.01-.156-.014-.312-.018-.457a7.515,7.515,0,0,1,.167-1.489c.014-.086.149-.063.149.02a12.269,12.269,0,0,0,.117,1.469c.01.086.025.172.04.259a10.471,10.471,0,0,1,.437-2.546.313.313,0,0,1,.567-.074l1,1.49a5.549,5.549,0,0,1,.443-2.086.027.027,0,0,1,.052.014,5.883,5.883,0,0,0-.019,1.58,3.47,3.47,0,0,0,.048.363,10.423,10.423,0,0,1,1.228-3.053.294.294,0,0,1,.5,0c.238.53.479,1.058.719,1.587a5.271,5.271,0,0,1,.861-2.724.061.061,0,0,1,.112.047,9.694,9.694,0,0,0-.38,1.81c-.012.089-.02.177-.028.264a11.622,11.622,0,0,1,1.312-2.252.314.314,0,0,1,.58.157l.1.88A5.388,5.388,0,0,1,34.294,59c.043-.032.1.038.057.074a4.381,4.381,0,0,0-.9,1.277,5.11,5.11,0,0,0-.251.624,6.042,6.042,0,0,1,2.7-1.833c.248-.085.431.171.391.391q-.181.993-.364,1.987a8.388,8.388,0,0,1,3.359-1.865c.041-.013.068.051.029.069A11.741,11.741,0,0,0,36.756,61.413Z"/>
    <path id="Path_35" data-name="Path 35" d="M45.253,67.82a8.092,8.092,0,0,0-1.534,2.726,8.805,8.805,0,0,1,.221,1.093,9.211,9.211,0,0,1,.9-1.734.3.3,0,0,1,.462-.06,4.082,4.082,0,0,1,.43.406c0-.025,0-.05,0-.076A20.458,20.458,0,0,0,45.253,67.82Z"/>
    <path id="Path_36" data-name="Path 36" d="M43.165,70.554a6.66,6.66,0,0,0-.672,3.078,4.128,4.128,0,0,1,.584.833c.126-.509.272-.986.4-1.4a5.068,5.068,0,0,0-.022-1.173c-.046-.265-.1-.525-.155-.784A.136.136,0,0,1,43.245,71c0-.034.005-.068.005-.1C43.222,70.786,43.2,70.669,43.165,70.554Z"/>
    <path id="Path_37" data-name="Path 37" d="M41.33,73.379a8.293,8.293,0,0,0-.72,2.323c-.031.224-.037.46-.049.7a2.711,2.711,0,0,0,.043.56c.075.366.235.705.338,1.058.01.016.022.032.032.049.092-.5.181-.92.218-1.139a.3.3,0,0,1,.434-.177c.371.229.831.522,1.3.859a4.951,4.951,0,0,1-.064-2.067A4.789,4.789,0,0,0,41.33,73.379Z"/>
    <path id="Path_38" data-name="Path 38" d="M39.92,80.323a2.721,2.721,0,0,0,.831.917c0-.006,0-.013,0-.019-.139-.719-.094-1.494-.208-2.212a4.716,4.716,0,0,0-.475-1.458c-.3-.472-.643-.926-.9-1.306A4.967,4.967,0,0,0,38.7,78.6c.032.58.195,1.128.274,1.692a1.842,1.842,0,0,1,.342.309l.047.058a.025.025,0,0,0,0-.007A.324.324,0,0,1,39.92,80.323Z"/>
    <path id="Path_39" data-name="Path 39" d="M38.25,80.554a3.2,3.2,0,0,1-.58-.5,5.192,5.192,0,0,0,.87,4.043c.4.228.806.471,1.206.731a2.7,2.7,0,0,1-.083-.409,5.455,5.455,0,0,1-.015-.982A3.547,3.547,0,0,0,38.25,80.554Z"/>
    <path id="Path_40" data-name="Path 40" d="M39.407,87.76a12.984,12.984,0,0,1,2.817,1.249,5.511,5.511,0,0,0-2.446-3.32c-.916-.618-1.851-1.211-2.79-1.794a5.923,5.923,0,0,0,1.03,2.349C38.4,86.737,39.141,87.186,39.407,87.76Z"/>
    <path id="Path_41" data-name="Path 41" d="M43.662,91.942a3.5,3.5,0,0,1-.256-.365.217.217,0,0,1-.1-.11A5.3,5.3,0,0,0,39.6,88.45a8.93,8.93,0,0,1-2.388-1.082c.488,1.957,2.044,3.083,3.477,4.436A8.1,8.1,0,0,0,43.662,91.942Z"/>
    <path id="Path_42" data-name="Path 42" d="M47.444,93.577a4.221,4.221,0,0,0-1.635-.781,10.666,10.666,0,0,0-2.618,0,10.47,10.47,0,0,1-1.563.012A11.276,11.276,0,0,0,44.5,94.137a16.636,16.636,0,0,0,3.877.561A3.961,3.961,0,0,1,47.444,93.577Z"/>
    <path id="Path_43" data-name="Path 43" d="M54.3,93.021a4.336,4.336,0,0,0-.45-4.18,45.556,45.556,0,0,1-2.959-4.428c-.452,1.818-1.735,3.226-2.547,4.954-.671,1.429-1.045,3.3.237,4.544a3.818,3.818,0,0,0,3.309.956A3.667,3.667,0,0,0,54.3,93.021Z"/>
    <path id="Path_44" data-name="Path 44" d="M56.936,92.874c-.724.182-1.462.61-2.2.813a4.394,4.394,0,0,1-1,1.111,3.32,3.32,0,0,1-.279.2c2.534.087,4.514-1.175,6.373-2.762a.145.145,0,0,1-.033-.028C58.844,92.42,57.886,92.635,56.936,92.874Z"/>
    <path id="Path_45" data-name="Path 45" d="M59.061,91.666l1.218-.283A10.39,10.39,0,0,0,62.451,86.8c-.675.53-1.313,1.1-1.979,1.64A5.291,5.291,0,0,1,59.061,91.666Z"/>
    <path id="Path_46" data-name="Path 46" d="M61.893,83.637A10.579,10.579,0,0,0,60.573,86a16.17,16.17,0,0,1-.018,1.626,11.973,11.973,0,0,1,1.367-1.205,5.562,5.562,0,0,0,.555-1.608,9.616,9.616,0,0,0,.067-1.833C62.333,83.193,62.1,83.395,61.893,83.637Z"/>
    <path id="Path_47" data-name="Path 47" d="M62.079,82.527a8.732,8.732,0,0,0,.04-2.332,10.882,10.882,0,0,0-.7-1.92,5.921,5.921,0,0,0-.684,2.22,6.469,6.469,0,0,1,.584,2.8c.036-.044.068-.092.106-.134C61.588,82.984,61.856,82.766,62.079,82.527Z"/>
    <path id="Path_48" data-name="Path 48" d="M59.459,74.844A7.739,7.739,0,0,0,59,76.883a7.306,7.306,0,0,1,.87,2.413,2.247,2.247,0,0,0,.615-.712,2.366,2.366,0,0,0,.1-.3C60.794,77.213,60.009,75.877,59.459,74.844Z"/>
    <path id="Path_49" data-name="Path 49" d="M57.615,72.165c-.018.042-.031.086-.048.128a1.532,1.532,0,0,1-.229.67c-.1.337-.194.675-.319,1a5.356,5.356,0,0,1,.735,1.612c0-.007.007-.013.01-.019a.315.315,0,0,1,.542,0c.051.111.117.24.191.379a4.187,4.187,0,0,1,.156-.653,3.3,3.3,0,0,0,.075-.562c.005-.18,0-.358-.01-.536A3.3,3.3,0,0,0,57.615,72.165Z"/>
    <path id="Path_50" data-name="Path 50" d="M56.129,72.621c.1.163.267.406.46.688a4.474,4.474,0,0,1,.354-1.144,4.4,4.4,0,0,0-1.132-2.356,3,3,0,0,1-.1.289c-.155.378-.285.722-.4,1.093a3.369,3.369,0,0,1,.456,1.323A.286.286,0,0,1,56.129,72.621Z"/>
    <path id="Path_51" data-name="Path 51" d="M54.488,75.506c.01.038.023.076.032.115a1.22,1.22,0,0,1-.133.926.325.325,0,0,1,.1.106,11.039,11.039,0,0,1,1.175,2.56,3.376,3.376,0,0,1,.2-.725,7.422,7.422,0,0,1,1.123-1.7.107.107,0,0,1,.009-.1c.471-.658.175-1.26-.206-1.883-.316-.517-.623-1.04-.937-1.558-.071.1-.13.194-.193.291a2.286,2.286,0,0,1-.273.549.157.157,0,0,1-.1.063A14.634,14.634,0,0,1,54.488,75.506Z"/>
    <path id="Path_52" data-name="Path 52" d="M54.253,70a4.115,4.115,0,0,1,.568.517c.114-.31.289-.63.373-.939a1.965,1.965,0,0,0-.563-1.193,4.929,4.929,0,0,0-.836-.64,8.067,8.067,0,0,0,.241,1.462A4.063,4.063,0,0,1,54.253,70Z"/>
    <path id="Path_53" data-name="Path 53" d="M78.091,55.643l1.207.3a10.54,10.54,0,0,0-1.281-.57,10.111,10.111,0,0,0-2.209-.49.044.044,0,0,1,0-.087,7.714,7.714,0,0,1,3.32.4,15.041,15.041,0,0,0-5.169-2.952.328.328,0,0,1,0-.626l.738-.29a10.754,10.754,0,0,0-1.295.145,12.05,12.05,0,0,0-2.063.642c-.066.026-.105-.077-.047-.112a8.761,8.761,0,0,1,3.285-1.252,15.01,15.01,0,0,0-6.025.341.291.291,0,0,1-.281-.482c.358-.41.71-.826,1.063-1.241-.375.266-.833.468-1.172.74a8.852,8.852,0,0,0-1.43,1.407c-.018.022-.047-.006-.037-.028a5.121,5.121,0,0,1,1.435-1.929c.123-.1.255-.2.392-.306a14.165,14.165,0,0,0-5.872,2.893c-.228.187-.637-.061-.439-.339.317-.446.642-.888.964-1.33-.057.039-.116.077-.168.116a9.236,9.236,0,0,1-1.269.845.02.02,0,0,1-.024-.031,7.334,7.334,0,0,1,.831-.795L59.3,51.754l1.742.224a.353.353,0,0,1,.177.653c-1.7,1.114-3.4,2.239-5.111,3.338l.975.054a.3.3,0,0,1,.148.547,11.953,11.953,0,0,0-4.556,9.037c.076.093.15.188.222.284A18.514,18.514,0,0,1,56.9,58.7c2.669-2.971,6.531-5.351,10.677-5.005a11.073,11.073,0,0,1,8.549,5.49A18.043,18.043,0,0,1,78.067,70.92c-.022.164-.3.124-.287-.039.216-3.744-.094-7.759-2.132-11.02-1.831-2.93-4.89-5.293-8.481-5.3a13.028,13.028,0,0,0-9.889,5.055,18.174,18.174,0,0,0-3,5.042,21.64,21.64,0,0,0-.727,2.394.2.2,0,0,1,.085.024c.234.146.53.336.823.557A6.6,6.6,0,0,1,58.082,65.5c-.074-.006-.147-.012-.22-.014-.7-.023-1.416.037-2.116-.04a.038.038,0,0,1-.01-.074,5.535,5.535,0,0,1,2.126-.341l.2,0c-.289-.155-.577-.309-.865-.466a.3.3,0,0,1,.151-.556q1.618-.156,3.238-.308c-.387-.106-.769-.274-1.13-.4-.59-.207-1.137-.48-1.718-.7a.06.06,0,0,1,.032-.115c.685.171,1.372.279,2.052.481.354.1.736.187,1.084.329l-1.586-1.565a.324.324,0,0,1,.142-.537,9.052,9.052,0,0,1,3.784.222,11.882,11.882,0,0,0-2.556-1.7c-.039-.018-.011-.082.029-.069a8.394,8.394,0,0,1,3.359,1.865q-.183-.993-.364-1.987c-.04-.22.142-.476.391-.391a6.039,6.039,0,0,1,2.7,1.833,5.276,5.276,0,0,0-.251-.624,4.381,4.381,0,0,0-.9-1.277c-.039-.035.014-.106.057-.074a5.36,5.36,0,0,1,1.43,1.448l.106-.88a.314.314,0,0,1,.58-.157,11.622,11.622,0,0,1,1.312,2.252c-.008-.088-.016-.175-.028-.264a9.694,9.694,0,0,0-.38-1.81.061.061,0,0,1,.112-.047,5.262,5.262,0,0,1,.861,2.724q.36-.793.719-1.587a.294.294,0,0,1,.5,0,10.433,10.433,0,0,1,1.228,3.053,3.221,3.221,0,0,0,.048-.363,5.843,5.843,0,0,0-.019-1.58.027.027,0,0,1,.052-.014,5.534,5.534,0,0,1,.443,2.086l1-1.49a.313.313,0,0,1,.567.074,10.423,10.423,0,0,1,.437,2.546c.015-.086.03-.173.04-.259a12.268,12.268,0,0,0,.117-1.469c0-.083.134-.106.149-.02a7.523,7.523,0,0,1,.167,1.489c0,.145-.009.3-.018.457l.131-.22a.316.316,0,0,1,.573.075,8.528,8.528,0,0,1,.1,3.344,8.111,8.111,0,0,0,.569-1.442c.023-.088.144-.048.132.036a7.467,7.467,0,0,1-.482,2.078c.064-.092.132-.183.191-.278.1-.154.4-.159.429.056.066.48.124.959.169,1.438a11.561,11.561,0,0,1,.222,3.17l.1-.2a35.6,35.6,0,0,0,2.131-5.124.313.313,0,0,1,.184-.2c-.022-.1-.045-.206-.071-.3-.13-.48-.265-.96-.41-1.436a.085.085,0,0,1,.155-.065,11.119,11.119,0,0,1,.712,1.6c.037.11.077.219.114.329a34.415,34.415,0,0,0-.271-6.175.336.336,0,0,1,.557-.324l.114.11c-.1-.127-.187-.259-.288-.384A9.641,9.641,0,0,0,78.9,59.9c-.04-.033.012-.1.055-.071A8.176,8.176,0,0,1,80.58,61.1c.11.119.269.272.421.44a11.27,11.27,0,0,0-3.206-5.39A.306.306,0,0,1,78.091,55.643Z"/>
    <path id="Path_54" data-name="Path 54" d="M87.826,43.621a2.286,2.286,0,0,0,.846.763c-.083-.11-.168-.219-.261-.325-.319-.361-.636-.722-.973-1.067a17.049,17.049,0,0,0-2.36-2.066c-.066-.046-.008-.151.064-.109a15.335,15.335,0,0,1,2.632,1.839c.126.115.27.242.417.374a22.693,22.693,0,0,0-3.418-3.752.309.309,0,0,1,.084-.487c-1.107-.409-2.2-.968-3.206-1.4-.023-.01-.006-.045.017-.04,1.176.279,2.531.493,3.765.892-1.094-.818-2.187-1.636-3.292-2.439a.316.316,0,0,1-.084-.4c-.633.02-1.279-.018-1.9.015-1.031.056-2.062.2-3.093.228-.043,0-.046-.057-.01-.071a13.652,13.652,0,0,1,3.3-.785l-3.06-.493a.29.29,0,0,1-.069-.527l1.04-.548c-.674.245-1.448.3-2.122.535-1.1.377-2.116.9-3.179,1.367-.076.033-.169-.06-.1-.125a8.766,8.766,0,0,1,2.776-1.589c.181-.067.373-.141.569-.215a19.041,19.041,0,0,0-4.827,1.174c-.3.115-.442-.284-.28-.482q.585-.714,1.169-1.427c-.653.49-1.444.882-2.067,1.332-1.018.735-1.884,1.635-2.853,2.426-.036.029-.1-.008-.068-.053a13.8,13.8,0,0,1,2.9-3.023c.115-.1.235-.2.357-.3a25.436,25.436,0,0,0-4.88,3.066c-.233.187-.646-.057-.448-.345l.052-.075c-.149.143-.294.29-.427.443a14.124,14.124,0,0,0-1.705,2.416.035.035,0,0,1-.063-.026,9.678,9.678,0,0,1,1.35-2.671q-1.155.973-2.309,1.947a.278.278,0,0,1-.389,0,22.389,22.389,0,0,1-1.866,3.452.042.042,0,0,1-.072-.042c.636-1.35,1.153-2.739,1.734-4.1a17.593,17.593,0,0,0-3.416,5.809.272.272,0,0,1-.525-.145q.113-.772.224-1.545c-.17.642-.437,1.273-.662,1.882a21.95,21.95,0,0,1-1.1,2.665c-.017.033-.062.009-.056-.024a22.245,22.245,0,0,1,.854-3.147c.13-.4.244-.816.383-1.219a18.31,18.31,0,0,0-2.371,5.454.242.242,0,0,1-.474-.064c.025-.563.058-1.125.091-1.687-.053.894-.3,1.785-.389,2.673a20.638,20.638,0,0,1-.245,2.45.018.018,0,0,1-.035,0,8.412,8.412,0,0,1-.214-3.154,17.02,17.02,0,0,0-.823,4.913.21.21,0,0,1-.35.153c-.1.716-.243,1.417-.387,2.048,0,.017-.027.011-.028,0a24.4,24.4,0,0,1-.12-2.462,53.974,53.974,0,0,0-.8,13.571c.065.07.13.137.192.213a30.963,30.963,0,0,1,3.164-14.836c2.413-5.1,6.18-10.2,11.3-12.841a13.972,13.972,0,0,1,15.273,1.335c4.51,3.426,6.847,9.336,6.9,14.9,0,.163-.225.151-.245,0-.75-5.587-2.755-11.334-7.651-14.623a13.281,13.281,0,0,0-15.069-.1,28.084,28.084,0,0,0-10.034,12.49,33.434,33.434,0,0,0-2.339,7.928,42.16,42.16,0,0,0-.424,5.459l.025.029a11.833,11.833,0,0,1,3.759-8.1c-.12.028-.235.056-.336.09-.463.155-.929.307-1.385.48-.1.036-.153-.113-.068-.162a12.214,12.214,0,0,1,1.348-.7c.041-.017.083-.037.126-.057l-.543-.012a.331.331,0,0,1-.166-.611c1.224-.834,2.463-1.649,3.7-2.461a10.483,10.483,0,0,1-2.24.04c-.079-.007-.11-.134-.02-.149.753-.125,1.505-.272,2.248-.448a9.669,9.669,0,0,1,1.368-.332l.082-.054-2.272-.292a.353.353,0,0,1-.094-.69l4.829-1.686c-.1-.014-.2-.028-.3-.04-.736-.092-1.469-.242-2.208-.306-.084-.007-.087-.134,0-.133.842.007,1.682-.113,2.524-.1.206,0,.411-.006.614-.006l-2.073-.883c-.352-.15-.13-.628.177-.652,1.63-.127,3.26-.244,4.891-.366-1.038-.423-2.014-1.036-3.026-1.5-.072-.033-.02-.156.054-.129.942.348,1.95.588,2.9.949q-.618-.583-1.235-1.169a.338.338,0,0,1,.236-.571,11.08,11.08,0,0,1,4.949.655,20.639,20.639,0,0,1-1.607-2.4c-.036-.058.051-.129.1-.074.482.583,1.027,1.112,1.556,1.651.252.256.526.5.79.755q-.3-.8-.606-1.6c-.123-.322.313-.5.53-.309q1.392,1.206,2.781,2.415c-.228-.374-.435-.763-.648-1.138-.427-.754-.852-1.505-1.211-2.294-.013-.029.024-.066.048-.037.488.589.927,1.21,1.362,1.84.259.376.542.755.8,1.145-.115-.471-.231-.943-.344-1.415a.312.312,0,0,1,.378-.378,6.649,6.649,0,0,1,3.638,1.854,11.294,11.294,0,0,0-.658-1.257A16.6,16.6,0,0,0,75.368,42.3a.04.04,0,0,1,.056-.056,11.6,11.6,0,0,1,2.74,3.311q-.045-.582-.089-1.163c-.022-.294.349-.388.537-.222a10.014,10.014,0,0,1,2.6,3.581c-.1-.571-.147-1.165-.248-1.719-.177-.968-.34-1.939-.536-2.9a.058.058,0,0,1,.111-.031,19.282,19.282,0,0,1,1,3.21c.073.358.159.724.22,1.091.125-.454.25-.908.378-1.361a.324.324,0,0,1,.62,0c.387,1.58.785,3.157,1.181,4.734.055-.68.156-1.366.175-2.031.028-.985,0-1.968-.008-2.954a.073.073,0,0,1,.142-.019,13.286,13.286,0,0,1,.39,4.812l.7-1.254a.333.333,0,0,1,.572,0,26.272,26.272,0,0,1,2.09,6.661,18.138,18.138,0,0,0,.272-4.769c-.006-.066-.013-.133-.019-.2a17.188,17.188,0,0,0-.461-2.727.324.324,0,0,1,.59-.249l.439.641c-.157-.4-.288-.825-.46-1.195a19.389,19.389,0,0,0-1.2-2.215c-.035-.055.049-.122.091-.07a15.767,15.767,0,0,1,1.606,2.359c.064.119.133.245.2.374a11.427,11.427,0,0,0-1.769-4C87.052,43.6,87.6,43.289,87.826,43.621Z"/>
    <path id="Path_55" data-name="Path 55" d="M57.128,32.958c-.132.311-.625.143-.616-.167q.018-.66.038-1.319c-.126.459-.289.915-.4,1.369-.188.786-.393,1.564-.531,2.36-.005.029-.049.021-.05-.007a14.584,14.584,0,0,1,.256-3.411A21.762,21.762,0,0,0,52.7,40.439c-.046.345-.593.505-.67.091-.033-.179-.067-.359-.1-.538,0,.019,0,.039,0,.059-.013.788-.023,1.576-.078,2.363-.006.093-.158.128-.174.023-.118-.79-.207-1.589-.271-2.386-.017-.211-.04-.426-.057-.641a27.871,27.871,0,0,0-.923,7.851.333.333,0,0,1-.522.255c.043.509.065,1.019.136,1.492.014.094-.12.137-.146.04-.178-.664-.481-1.356-.667-2.058q.05,3.423.068,6.847c.033.348.033.7.053,1.046a8.477,8.477,0,0,1,0,1.116q.144,1.389.2,2.784a52.227,52.227,0,0,1,.194,7.229,2.887,2.887,0,0,0-.3-.5,5.48,5.48,0,0,1,.47,1.55c.022-.029.05-.065.067-.089s.025-.018.037-.03a3.645,3.645,0,0,1,.229-1.257,53.577,53.577,0,0,1,.2-6.824,48.6,48.6,0,0,1,1.78-11.086.24.24,0,0,1,.323-.16A46.078,46.078,0,0,1,69.594,24.258c4.017-2.831,10.317-6.641,15.27-3.809a.145.145,0,0,1-.111.264,13.9,13.9,0,0,0-9.1.845,35.543,35.543,0,0,0-6.812,4.208,45.214,45.214,0,0,0-10.2,10.965,46.938,46.938,0,0,0-3.576,6.53.224.224,0,0,1,.026.118q-.041.609-.08,1.219a19.889,19.889,0,0,1,3.158-5.68c.195-.244.5.032.462.269l-.2,1.367a18.124,18.124,0,0,1,4.26-5.659.291.291,0,0,1,.455.351L62.654,36.4q2.382-2,4.762-4.01c.233-.2.645.062.449.346q-.6.864-1.19,1.727A26.36,26.36,0,0,1,70.9,32.055c-.334-.124-.663-.26-1-.384a.074.074,0,0,1,.039-.143c.521.093,1.035.157,1.545.274.665-.282,1.343-.541,2.035-.769.285-.094.428.248.288.453.667-.073,1.351-.1,2.032-.122-1.159-.453-2.3-1-3.4-1.522-.082-.039-.024-.17.061-.145,1.2.347,2.437.712,3.626,1.159-.6-.286-1.193-.571-1.787-.86-.324-.157-.136-.6.169-.625l4.587-.319A31.884,31.884,0,0,1,75.144,27.3c-.087-.04-.025-.177.064-.152.973.281,2.026.52,3.027.851l-.634-.484a.338.338,0,0,1,.08-.61,14.622,14.622,0,0,1,4.917-.284c-.275-.136-.546-.283-.816-.414-.915-.443-1.857-.848-2.729-1.372a.067.067,0,0,1,.052-.122c.981.271,1.92.677,2.872,1.032.235.088.481.17.728.258-.523-.462-1.046-.923-1.566-1.389a.318.318,0,0,1,.223-.538,23.373,23.373,0,0,1,3.373.1,15.218,15.218,0,0,0-1.442-.521c-1.047-.3-2.115-.467-3.173-.718a.074.074,0,0,1,.02-.145,12.17,12.17,0,0,1,4.722.727c-.643-.4-1.289-.8-1.927-1.21a.312.312,0,0,1,.157-.578c1.47.071,2.937.123,4.4.272.432.027.865.058,1.3.087-.121-.043-.242-.087-.361-.127-.628-.21-1.245-.442-1.861-.683a.042.042,0,0,1,.022-.08c.657.091,1.31.192,1.962.316.231.044.47.082.707.13a14.365,14.365,0,0,0-9-3.951,5.621,5.621,0,0,0-1.422.165,18.633,18.633,0,0,0-2.8,1.176c-.184.154-.369.307-.563.448-.117.085-.219-.073-.175-.175a3.663,3.663,0,0,1,.959-1.257c-.253.086-.5.176-.73.279a16.17,16.17,0,0,0-2.341,1.319c-.02.013-.038-.015-.024-.031a10.379,10.379,0,0,1,2.256-1.888,16.073,16.073,0,0,0-4.184,2.268c-.287.216-.6-.187-.457-.457q.309-.583.619-1.168a10.493,10.493,0,0,0-.933.841,8.7,8.7,0,0,0-1.5,2.271c-.027.062-.131.017-.109-.046a9.051,9.051,0,0,1,1.235-2.514l.056-.075A26.5,26.5,0,0,0,63.3,25.531a.325.325,0,0,1-.6-.144c-.414,1.077-1.037,2.141-1.47,3.09-.013.028-.057.008-.049-.021a36.884,36.884,0,0,1,.972-3.648A32.442,32.442,0,0,0,57.128,32.958Z"/>
  </g>
</svg>
